<svg width="402" height="147" viewBox="0 0 402 147" fill="none" xmlns="http://www.w3.org/2000/svg">
<path d="M234.771 114.205L236.118 113.422L237.707 115.955L242.711 114.365L244.09 111.302L246.271 113.419L250.932 113.889L247.482 117.063L246.944 130.257L243.059 118.237L237.021 120.369L239.871 125.224L242.273 124.733L241.433 127.292L246.812 136.787L247.621 146.182L245.188 143.259L235.338 147L241.257 139.025L236.682 130.297L233.696 130.7L235.311 127.898L232.734 122.557L227.323 129.08L233.603 134.833L223.656 131.983L219.234 133.823L220.621 130.595L217.754 127.662L222.799 127.022L228.011 121.401L226.499 118.809L227.185 118.028L217.766 103.5L225.065 95.5977L234.771 114.205ZM185.404 103.881L172.579 120.213L181.471 128.465L164.165 139.034L173.55 128.868L168.909 123.97L159.12 141.307L164.366 146.644C161.911 145.581 155.938 144.371 153.702 143.338V137.015L164.401 121.764L159.929 121.092L153.702 132.008L155.872 113.974L166.497 117.187L178.075 95.876L185.404 103.881ZM167.376 117.664L166.987 118.38L166.208 118.144L156.723 115.274L155.286 127.213L159.061 120.597L159.399 120.001L160.077 120.103L164.55 120.774L166.148 121.015L165.22 122.338L154.702 137.329V142.667C155.794 143.078 157.443 143.534 159.214 144.015C159.741 144.158 160.278 144.303 160.808 144.45L158.407 142.008L157.879 141.471L158.249 140.815L168.038 123.479L168.704 122.299L169.635 123.282L174.275 128.181L174.919 128.859L174.284 129.547L169.765 134.441L179.821 128.299L171.898 120.946L171.224 120.319L171.793 119.596L184.094 103.93L178.284 97.585L167.376 117.664ZM225.605 91.2031L215.332 102.919L221.941 118.325C220.896 119.378 219.229 121.173 218.11 122.376C215.791 117.135 213.628 111.821 211.297 106.554C210.921 106.857 210.311 107.584 210.086 107.766L216.202 123.927C214.86 125.217 212.689 127.519 211.269 129.019C209.249 123.2 207.437 117.141 205.444 111.402L204.233 112.412L209.239 131.196C206.663 134.017 203.702 136.826 201 139.697V139.574L193.226 131.292L198.775 112.507L197.564 111.497C197.061 112.954 196.551 114.416 196.038 115.883C195.525 117.349 195.008 118.821 194.49 120.298C193.454 123.252 192.411 126.226 191.375 129.221L186.971 124.359L193.125 107.861L191.914 106.649C191.624 107.304 191.34 107.959 191.061 108.613C190.781 109.268 190.507 109.923 190.234 110.578C188.601 114.509 187.068 118.455 185.289 122.474L181.324 118.153C183.161 113.506 185.771 107.633 187.677 103.014L177.425 91.2979L201 28.3086V27.6396L225.605 91.2031ZM178.57 91.0879L188.43 102.355L188.838 102.822L188.602 103.396C186.754 107.873 184.305 113.395 182.486 117.941L184.984 120.664C185.927 118.478 186.813 116.31 187.695 114.14C187.963 113.482 188.23 112.825 188.499 112.167C188.768 111.51 189.038 110.852 189.312 110.194C189.858 108.878 190.417 107.562 191 106.244L191.59 104.91L192.621 105.942L193.832 107.154L194.286 107.609L194.062 108.211L188.12 124.138L190.983 127.299C191.838 124.84 192.695 122.396 193.547 119.967C194.584 117.013 195.612 114.081 196.619 111.17L197.093 109.802L198.205 110.729L199.416 111.739L199.921 112.16L199.734 112.79L194.347 131.024L201 138.112V31.1602L178.57 91.0879ZM153.632 0C153.632 0.898757 153.358 1.94771 153.592 2.71777C134.016 12.5949 129.823 29.5098 137.44 38.7695C137.776 39.1779 138.136 39.5709 138.518 39.9482C139.663 41.0806 141.012 42.0676 142.557 42.875C142.728 42.9648 142.903 43.0524 143.079 43.1377C143.432 43.3082 143.795 43.47 144.167 43.6221C145.284 44.0781 146.486 44.4493 147.771 44.7256C148.2 44.8177 148.638 44.8991 149.085 44.9697C149.308 45.005 149.534 45.0376 149.762 45.0674C157.972 46.1401 169.139 43.6136 182.732 35.3086L192.444 45.2959L175.884 87.3096L162.495 77.3691C165.836 74.6717 169.424 70.5287 172.393 66.2432C173.506 64.6362 174.532 63.0093 175.426 61.4307C175.873 60.6412 176.286 59.864 176.661 59.1074C177.535 57.3426 178.198 55.6907 178.576 54.2607C179.019 52.5873 178.632 51.8154 177.251 51.6895C176.913 51.6587 176.576 51.7172 176.271 51.8447C176.195 51.8766 176.121 51.9129 176.05 51.9531C175.8 52.0937 175.58 52.2828 175.413 52.5078C175.389 52.5399 175.367 52.573 175.346 52.6064C175.064 53.043 174.974 53.5956 175.214 54.1777C175.232 54.2225 175.253 54.2675 175.275 54.3125C175.678 55.1207 176.518 55.7078 176.524 55.7119C174.964 57.6411 171.176 62.6918 169.553 64.8906L167.457 57.2812L165.741 58.3359L166.688 68.4951C163.309 72.2812 159.454 76.4849 156.041 80.2402L156.175 61.3115L154.441 61.71L148.291 86.6182L134.239 94.8359L144.828 61.4717L143.197 61.1387L124.983 97.4082L110.212 95.2354L132.561 58.3525L130.47 57.1504L100.812 92.2705C96.1772 89.712 91.8394 87.3788 87.1191 84.7734L124.552 49.4268L122.704 46.5752L77.9277 78.1729L62.333 66.6436L119.285 38.3428L118.332 34.7871L53.9512 59.2061L39.3984 45.3867L117.62 25.8447L118.294 21.9824L31.29 37.3027L18.1455 22.835L120.641 14.0332L122.935 10.7324L12.165 16.1094L0 0H153.632ZM389.835 16.0146L279.065 10.6377L281.359 13.9385L383.854 22.7402L370.71 37.208L283.706 21.8867L284.38 25.75L362.602 45.292L348.049 59.1104L283.668 34.6924L282.714 38.248L339.667 66.5488L324.072 78.0781L279.295 46.4805L277.447 49.3311L314.881 84.6787C310.161 87.2841 305.822 89.6162 301.187 92.1748L271.53 57.0557L269.438 58.2568L291.788 95.1406L277.017 97.3135L258.802 61.043L257.172 61.376L267.761 94.7412L253.708 86.5234L247.559 61.6152L245.825 61.2168L245.959 80.1455C242.545 76.3901 238.691 72.1865 235.312 68.4004L236.259 58.2412L234.543 57.1865L232.446 64.7949C230.823 62.5959 227.036 57.5464 225.476 55.6172C225.481 55.6136 226.322 55.0255 226.725 54.2168C227.44 52.7746 226.099 51.4708 224.749 51.5938C223.368 51.7197 222.981 52.4917 223.424 54.165C225.153 60.7028 232.822 71.8795 239.505 77.2744L226.116 87.2148L209.556 45.2002L219.268 35.2129C267.6 64.7423 285.257 21.2141 248.408 2.62207C248.634 1.87911 248.389 0.876695 248.371 0H401.928L389.835 16.0146ZM12.6436 15.084L122.886 9.7334L124.915 9.63477L123.756 11.3027L121.462 14.6035L121.194 14.9893L120.727 15.0293L20.2441 23.6572L31.6602 36.2217L118.12 20.998L119.524 20.75L119.279 22.1543L118.605 26.0166L118.493 26.6572L117.862 26.8145L41.4072 45.915L54.1846 58.0479L117.978 33.8525L119.012 33.46L119.298 34.5283L120.251 38.084L120.463 38.874L119.73 39.2383L64.2422 66.8115L77.9404 76.9385L122.128 45.7578L122.978 45.1582L123.543 46.0312L125.391 48.8828L125.844 49.582L125.238 50.1543L88.8037 84.5576C90.7336 85.6189 92.6075 86.6422 94.4766 87.6611C96.4965 88.7624 98.5095 89.861 100.576 90.999L129.706 56.5049L130.244 55.8672L130.968 56.2832L133.059 57.4854L133.946 57.9961L133.416 58.8711L111.848 94.4648L124.413 96.3135L142.304 60.6895L142.647 60.0059L143.397 60.1592L145.028 60.4922L146.117 60.7139L145.781 61.7744L135.979 92.6592L147.421 85.9678L153.471 61.4707L153.618 60.873L154.218 60.7354L155.951 60.3369L157.184 60.0537L157.175 61.3184L157.059 77.6357C159.9 74.5169 162.919 71.2081 165.651 68.1523L164.745 58.4287L164.688 57.8096L165.218 57.4844L166.934 56.4297L168.067 55.7324L168.421 57.0156L169.972 62.6494C171.569 60.5083 173.773 57.5881 175.154 55.8291C174.881 55.541 174.589 55.1774 174.38 54.7578V54.7568C174.174 54.3413 174.079 53.9254 174.076 53.5273C174.075 53.3946 174.084 53.2639 174.103 53.1357C174.176 52.6231 174.4 52.153 174.725 51.7686C174.802 51.6772 174.885 51.5904 174.973 51.5088C175.017 51.4677 175.063 51.4281 175.109 51.3896C175.575 51.0068 176.159 50.7563 176.778 50.6953C176.902 50.6832 177.027 50.6792 177.152 50.6826C177.215 50.6843 177.279 50.6876 177.342 50.6934L177.657 50.7334C178.391 50.8552 179.101 51.1846 179.487 51.9385C179.512 51.9863 179.535 52.035 179.556 52.084C179.639 52.2808 179.692 52.487 179.722 52.6992C179.803 53.2821 179.703 53.9107 179.543 54.5166C179.486 54.7311 179.424 54.95 179.355 55.1729C178.74 57.1799 177.662 59.5109 176.293 61.9297C175.38 63.5419 174.337 65.1931 173.215 66.8135C170.497 70.7365 167.246 74.5673 164.104 77.3184L175.431 85.7285L191.276 45.5293L182.568 36.5742C170.677 43.7138 160.557 46.5095 152.58 46.2881C151.816 46.2669 151.072 46.2181 150.348 46.1426C149.865 46.0923 149.391 46.0296 148.926 45.9561C148.461 45.8825 148.005 45.7973 147.558 45.7012C145.77 45.3167 144.129 44.7551 142.644 44.0381C142.272 43.8588 141.91 43.67 141.559 43.4717C140.855 43.075 140.191 42.6405 139.567 42.1719C139.255 41.9375 138.954 41.6947 138.662 41.4434C138.517 41.3179 138.374 41.1901 138.233 41.0605C137.671 40.5419 137.151 39.9909 136.673 39.4102C136.195 38.8295 135.759 38.2191 135.367 37.582C129.147 27.4643 134.338 11.6216 152.501 2.1543C152.489 1.85618 152.507 1.57111 152.527 1.32422C152.537 1.20905 152.549 1.10155 152.559 1H2.00781L12.6436 15.084ZM213.342 17.9854C213.564 17.8236 213.982 17.7982 214.265 17.875C215.791 18.2907 217.316 18.7226 218.812 19.2373C219.134 19.3482 219.488 19.7901 219.561 20.1357C220.143 22.9003 220.678 25.6753 221.178 28.4561C221.248 28.8453 221.195 29.4226 220.952 29.6777C216.931 33.9077 212.871 38.1001 208.683 42.4424C206.612 36.8941 204.59 31.4766 202.528 25.9521C206.172 23.2587 209.747 20.6073 213.342 17.9854ZM187.818 18.1309C188.065 18.0693 188.381 18.0852 188.664 18.1631C188.721 18.1787 188.777 18.1965 188.829 18.2168C188.935 18.2577 189.032 18.3082 189.114 18.3672C192.449 20.7693 195.758 23.2071 199.044 25.6748C199.315 25.8785 199.589 26.4531 199.492 26.7207C199.492 26.7207 195.618 37.184 193.664 42.4131L181.498 30.1309C181.069 29.6906 180.938 29.2944 181.068 28.666C181.348 27.3158 181.615 25.9626 181.871 24.6074C181.999 23.9298 182.126 23.2518 182.249 22.5732C182.372 21.8946 182.493 21.2155 182.611 20.5361C182.728 19.8687 182.974 19.522 183.656 19.3467C184.356 19.1671 185.046 18.9505 185.736 18.7354C186.427 18.52 187.118 18.306 187.818 18.1309ZM188.061 19.1006C187.726 19.1842 187.393 19.2774 187.057 19.377C186.72 19.4763 186.381 19.5823 186.034 19.6904C185.521 19.8505 184.99 20.0169 184.449 20.1689C184.269 20.2196 184.087 20.2687 183.905 20.3154C183.796 20.3436 183.738 20.3703 183.71 20.3857C183.697 20.3931 183.69 20.398 183.688 20.3994H183.688V20.4004C183.687 20.4005 183.687 20.401 183.686 20.4023C183.685 20.4038 183.683 20.4063 183.681 20.4102C183.676 20.4179 183.669 20.4321 183.66 20.4551C183.651 20.4794 183.641 20.5113 183.63 20.5527C183.619 20.5942 183.608 20.6451 183.597 20.708C183.478 21.3892 183.356 22.0702 183.232 22.751C182.985 24.113 182.729 25.4741 182.46 26.833C182.326 27.5123 182.188 28.191 182.048 28.8691C182.005 29.077 182.024 29.1549 182.031 29.1807C182.039 29.2079 182.067 29.2802 182.209 29.4268L193.272 40.5957C194.199 38.109 195.37 34.9606 196.373 32.2578C196.979 30.6233 197.525 29.1523 197.919 28.0898C198.116 27.5586 198.274 27.1293 198.384 26.833C198.424 26.7255 198.457 26.6355 198.483 26.5645C198.466 26.5289 198.448 26.4956 198.43 26.4707C198.425 26.4646 198.422 26.4595 198.419 26.4561C195.146 23.9983 191.85 21.5707 188.529 19.1787C188.527 19.1773 188.508 19.1648 188.469 19.1494C188.427 19.1333 188.374 19.1181 188.314 19.1074C188.183 19.084 188.088 19.0936 188.061 19.1006ZM173.378 24.9561C170.227 25.7773 167.236 26.5834 164.229 27.3232C163.82 27.4239 163.504 27.5724 163.255 27.7959C163.161 27.8798 163.077 27.9745 163.001 28.0811C162.925 28.1875 162.856 28.3056 162.794 28.4375C162.753 28.5254 162.715 28.6195 162.679 28.7197C162.055 30.4621 161.315 32.1636 160.555 34.0518C159.011 29.9659 157.538 26.0701 156.022 22.0596L165.696 18.3066L173.378 24.9561ZM235.63 18.7881C235.955 18.5324 236.542 18.3106 236.889 18.4277C239.951 19.4605 242.987 20.574 246.179 21.7158C244.673 25.7068 243.196 29.6241 241.633 33.7686C240.833 31.7602 240.101 30.0149 239.451 28.2402C239.196 27.5432 238.775 27.2233 238.084 27.0498C235.026 26.2823 231.978 25.4756 228.725 24.6309L235.63 18.7881ZM157.308 22.6328C158.405 25.5379 159.486 28.3944 160.592 31.3203C161.001 30.3209 161.387 29.3621 161.737 28.3828C161.76 28.3195 161.784 28.257 161.81 28.1953C161.835 28.1333 161.861 28.0719 161.89 28.0117C161.946 27.8919 162.008 27.7757 162.077 27.6641C162.181 27.4962 162.302 27.3389 162.441 27.1934C162.488 27.1449 162.536 27.0974 162.587 27.0518C162.638 27.0061 162.69 26.9628 162.743 26.9219C162.902 26.7996 163.071 26.6982 163.247 26.6133C163.483 26.4998 163.732 26.416 163.989 26.3525C166.401 25.7593 168.798 25.1243 171.289 24.4697L165.497 19.4561L157.308 22.6328ZM166.774 12.4424C176.759 12.4442 186.744 12.4397 196.729 12.4629C197.001 12.4635 197.504 12.6184 197.545 12.9209C197.593 13.2845 197.115 13.5103 196.837 13.5947C191.995 15.0642 187.154 16.535 182.285 17.9111C181.389 18.1644 181.098 18.602 180.953 19.4229L179.231 27.8896L165.444 16.3555C165.238 16.163 165.1 15.9623 165.014 15.7568C164.999 15.7225 164.986 15.6881 164.975 15.6533C164.688 14.7903 165.277 13.8486 165.685 13.0391C165.993 12.4266 166.292 12.4424 166.774 12.4424ZM221.407 11.0244C226.108 11.4894 230.802 12.0235 235.501 12.501C236.225 12.5745 236.576 12.8331 236.751 13.5635C237.298 15.8433 237.325 15.8338 235.541 17.3135L222.941 27.7266C222.354 24.7518 221.772 21.921 221.251 19.0791C221.116 18.3441 220.817 17.9736 220.078 17.751C215.367 16.3322 210.677 14.8424 205.966 13.4229C205.316 13.2269 204.284 12.7712 205.002 12.4883C205.88 12.1429 217.928 12.3027 218.004 12.3037C218.858 12.3241 219.501 12.1287 220.095 11.4717C220.371 11.1667 220.978 10.982 221.407 11.0244ZM166.604 13.4424C166.597 13.4559 166.587 13.4711 166.578 13.4893C166.271 14.0998 166.028 14.5087 165.931 14.9268C165.889 15.1052 165.893 15.2236 165.914 15.3066C165.932 15.3786 165.977 15.482 166.12 15.6172L178.586 26.0459L179.974 19.2236C180.059 18.752 180.209 18.2466 180.569 17.8145C180.616 17.7581 180.665 17.7047 180.716 17.6543C180.868 17.5028 181.038 17.3775 181.221 17.2725C181.464 17.1324 181.731 17.0289 182.013 16.9492C185.964 15.8324 189.898 14.6513 193.835 13.459C184.816 13.4426 175.796 13.444 166.774 13.4424H166.604ZM174.648 14.6094C175.303 14.673 175.9 14.9713 176.342 15.4199C176.531 15.6122 176.692 15.8325 176.817 16.0732C177.026 16.4743 177.137 16.9332 177.112 17.4189C177.094 17.7831 177.002 18.1301 176.853 18.4453C176.666 18.8389 176.388 19.1831 176.048 19.4492C175.571 19.822 174.973 20.0417 174.332 20.0303H174.331C174.239 20.0286 174.148 20.0217 174.059 20.0107C173.611 19.9559 173.196 19.7887 172.842 19.5391C172.7 19.4393 172.569 19.3262 172.448 19.2021C172.026 18.7674 171.744 18.1956 171.68 17.5703C171.671 17.4812 171.666 17.3909 171.666 17.2998V17.2988L171.68 17.0234C171.819 15.6639 172.976 14.608 174.364 14.5967C174.46 14.5959 174.555 14.6003 174.648 14.6094ZM174.372 15.5967C173.431 15.6043 172.666 16.368 172.666 17.2988C172.667 18.1659 173.341 18.9145 174.18 19.0186C174.236 19.0255 174.292 19.0292 174.35 19.0303C174.636 19.0354 174.912 18.9658 175.156 18.8389C175.352 18.7374 175.527 18.5994 175.673 18.4346C175.928 18.1459 176.093 17.774 176.113 17.3691C176.161 16.4123 175.352 15.5888 174.372 15.5967Z" fill="#EDEDED"/>
</svg>
